<svg id="Слой_1" data-name="Слой 1" xmlns="http://www.w3.org/2000/svg" viewBox="0 0 800 800"><title>addМонтажная область 1</title><path d="M356.64,357.11V341q0-145.38.06-290.76c.05-34.59,30.62-56.69,60.88-44.44,17.58,7.11,27.66,23.37,27.67,45.37q.09,144.69,0,289.37v16.6H461q146.07,0,292.14.08c34.12.07,56.3,32.09,42.84,61.77-8.49,18.73-23.92,26.9-44.46,26.86q-144-.24-288-.07H445.28V461.2q0,146.07,0,292.13c0,20.8-10.45,37.08-27.9,43.76-17.69,6.76-33.65,3.14-47.3-9.71-10.42-9.8-13.52-22.37-13.49-36.44q.29-144,.1-288V445.75H340.11q-145.38,0-290.75-.06c-34.45-.07-56.76-31.28-43.75-61.25C14.08,364.93,30,357,51.07,357q144.68.33,289.36.1Z"/></svg>