<svg id="Слой_1" data-name="Слой 1" xmlns="http://www.w3.org/2000/svg" viewBox="0 0 800 800"><title>exitМонтажная область 1</title><path d="M400.43,475.75c-27.4,27.45-53.63,53.78-79.91,80.06Q207.93,668.39,95.41,781c-12.67,12.72-27,20.72-45.13,19.12-21.48-1.89-37.3-13-44.8-33.3-8.17-22-2.94-41.64,13.91-58.45Q133.3,594.82,246.93,481c26.22-26.22,52.51-52.37,79.41-79.2-5.11-5.39-9.06-9.78-13.23-13.95Q166.89,241.54,20.66,95.27c-22.84-22.87-25.17-53.36-6.15-75C35.26-3.32,69.31-4,93,19.33c40.48,40,80.58,80.36,120.8,120.62,61.83,61.91,123.62,123.86,186.47,186.82,5-4.65,9.34-8.51,13.46-12.62Q559.37,168.52,704.91,22.72c13.49-13.54,28.3-22.12,48-20,20.29,2.19,34.82,12.78,42.63,31.39s5.5,36.48-6.74,52.62c-4,5.19-8.85,9.68-13.49,14.32Q632,244.43,488.61,387.78c-4.18,4.18-8.17,8.55-12.89,13.52,4.62,4.9,8.56,9.28,12.72,13.45Q633.49,559.86,778.33,705.19c8.49,8.55,16.14,19.86,19.41,31.26,6.65,23.17-4.53,45.83-24.76,57.23s-44.39,8.71-62-8.31c-25.19-24.32-49.69-49.35-74.45-74.11q-112-112-224-224C409.07,483.79,405.45,480.51,400.43,475.75Z"/></svg>