<svg id="Слой_1" data-name="Слой 1" xmlns="http://www.w3.org/2000/svg" viewBox="0 0 800 800"><title>deleteМонтажная область 1</title><path d="M95,186c-9.7,0-18.4.08-27.09,0-18-.2-30.51-11.61-30.55-27.76S49.71,130.07,67.64,130c47.55-.16,95.14-1.26,142.62.51,19.87.74,30.48-4.43,36.88-23.63,5.84-17.55,15.18-34,23.58-50.63C288.07,21.94,316.1,2.19,354.55.74c34-1.28,68.25-.88,102.25,1,30.81,1.72,55,17.59,70.43,44.19,13.57,23.39,25.38,47.84,37.06,72.26,4.15,8.7,8.63,12.17,18.76,12,49.58-.66,99.17-.37,148.76-.2a48.83,48.83,0,0,1,16.26,2.41c12.07,4.37,19.28,17.9,17,30.3a27.73,27.73,0,0,1-26.07,23c-10.13.4-20.29.08-31.07.08-1.18,17.19-2.39,33.4-3.39,49.63C698.52,334.74,693,434.05,686.2,533.26,683.11,578,680,623,672.16,667c-12.93,72.63-71.87,125.65-145.8,130.55-61.3,4.07-123,4-184.45,3.77-30.16-.11-61.19-1.1-90.28-8.11-68.25-16.43-110.37-61.58-122.69-130.59-7.35-41.17-9.65-83.34-12.6-125.18-5.21-73.89-9.19-147.86-13.65-221.81C100.11,272.89,97.6,230.11,95,186Zm56.39.55c0,2.54-.11,4.54,0,6.53q3.62,60.25,7.28,120.5c4.5,74.22,8.62,148.47,13.66,222.65,2.53,37.2,5.17,74.5,10.53,111.36,8,54.73,44.13,88.89,98.94,94.55a767,767,0,0,0,84.68,3.67c52.16-.4,104.42-.6,156.42-4.14,47.8-3.25,83-36.2,94.21-83a233,233,0,0,0,6.26-37q7.59-104.25,14.25-208.57c4.08-62.56,7.84-125.14,11.7-187.72.79-12.92,1.43-25.85,2.15-38.87Zm357.57-57C497.76,109.09,487.88,90,477,71.58a27.45,27.45,0,0,0-23.23-13.87c-34.63-.46-69.29-.91-103.86.56C342.15,58.6,332,65,327.73,71.66c-11.52,18-20.46,37.59-31.11,57.86Z"/></svg>