<svg id="Слой_1" data-name="Слой 1" xmlns="http://www.w3.org/2000/svg" viewBox="0 0 800 800"><title>deleteМонтажная область 1</title><path d="M124.36,185.7c-4.22,0-7.09.09-10,0-18-.6-31-13.78-30.77-31.2.21-17,13.15-30,30.77-30.12,30.7-.26,61.41-.08,92.12-.08,26.79,0,53.59,0,81.35,0-.93-38.9,11.23-71.74,40.95-96.63C350,10,374.56,1,402.17,1.52c32.68.6,60.26,13.14,82.23,37.35,21.69,23.92,30.19,52.73,29.17,85.42H524.9q80.6,0,161.2,0c15.09,0,27.33,9.17,31,22.51s-2,28.42-14.44,34.42c-7.21,3.47-15.78,4.1-25.41,6.41v9.48q0,242.28,0,484.57C677.19,751.6,628.89,800,559.12,800q-158.33,0-316.65,0c-69.78,0-118.1-48.39-118.11-118.23q0-241.82,0-483.61Zm61.42.42v10.26q0,242.76,0,485.52c0,35.75,20.83,56.65,56.48,56.66q158.33,0,316.65,0c36.25,0,56.85-20.75,56.85-57.25q0-242.28,0-484.57V186.12ZM451,123.78c3.54-21.71-5.49-42.09-23.22-53.13A50.75,50.75,0,0,0,371,72.55c-16.49,12-24.59,32.5-20.12,51.23Z"/><path d="M349.39,462.14c0,34.19.17,68.39-.09,102.58-.11,14.51-9.72,26.36-22.84,29.55S299.07,592,292.78,580a41,41,0,0,1-4.57-18.23q-.48-99.7-.14-199.41c0-19.78,12.78-33.13,30.78-33.14s30.45,13.26,30.54,33.17c.13,33.24,0,66.47,0,99.71Z"/><path d="M452.14,461.94c0-32.92-.07-65.83,0-98.75.06-20.78,12.15-34,30.69-33.92,18.22.08,30.64,13.73,30.67,34.28q.15,98.74,0,197.5c0,16.59-8,28.38-21.54,32.7-12.74,4.07-27.57-.51-34.38-12.25a42.64,42.64,0,0,1-5.23-19.86C451.86,528.41,452.14,495.17,452.14,461.94Z"/></svg>