<svg id="Слой_1" data-name="Слой 1" xmlns="http://www.w3.org/2000/svg" viewBox="0 0 800 800"><title>editМонтажная область 1</title><path d="M800,190.49c-.25,36-14.1,66.05-39.42,91.28q-78.86,78.59-157.52,157.38Q476.48,565.7,350,692.36c-27.86,28-59.94,48.42-97.6,60.45-34.44,11-68.46,23.36-103,34.06C77.45,809.16,6.37,755.22,9.1,680.52a114.21,114.21,0,0,1,5.71-30.17c11.66-36.47,24.06-72.7,36.15-109,11-32.94,29.14-61.36,53.64-85.87Q312.53,247.51,520.45,39.57c51.92-51.84,128.88-51.69,181.09,0,20.7,20.48,41.35,41,61.74,61.81C787.51,126,799.93,155.76,800,190.49ZM450,207.17c-1.77,1.56-4,3.29-5.95,5.26q-146.49,146.51-292.95,293a147,147,0,0,0-35.87,58.41c-11.53,34.64-22.82,69.36-34.74,103.87-5.73,16.61-4.53,31.65,8,44.35,12.88,13,28.18,14.32,45.21,8.41,33.48-11.63,67.16-22.69,100.85-33.69,24.8-8.1,46-21.56,64.4-40q143.7-144,287.7-287.73c2.68-2.68,5.21-5.52,7.31-7.76ZM643,301.47c25.4-25.07,51.37-49.28,75.63-75.11,19.13-20.36,18.33-53.06-1.14-73.83C695.37,129,672.47,106.13,649,84c-20.08-19-52.3-21.16-72.09-2.86-26.75,24.74-51.1,52.08-76.22,78Z"/></svg>