<svg id="Слой_1" data-name="Слой 1" xmlns="http://www.w3.org/2000/svg" viewBox="0 0 800 800"><title>exitМонтажная область 1</title><path d="M539.06,1.56c2.61,1.08,5.25,2.09,7.83,3.23a37.67,37.67,0,0,1,21.66,41.73c-3.11,16.3-17.71,29-34.59,29.95-2.85.16-5.72.09-8.59.09H183.24c-34.45,0-55,20.45-55,54.72q0,270.27,0,540.54c0,34.23,20.63,54.72,55.05,54.73q173.42,0,346.82,0c19.88,0,35.7,12.79,38.59,30.79,3.13,19.57-7.3,36.12-26.91,42.77a18.67,18.67,0,0,0-2.69,1.41h-375a25,25,0,0,0-4.28-1.43C98.83,790.91,53.37,739,53.29,677.2q-.34-275.64,0-551.29c.06-57.08,39-106.28,94.25-120.51,5.48-1.41,11-2.56,16.53-3.84Z"/><path d="M619.45,439.06H611q-141,0-281.94,0c-21.31,0-37.32-13.47-39.75-33.16-2.74-22.25,14.8-41.69,38.12-41.77,45.56-.15,91.12-.05,136.68-.05H621.34c-2.83-3.05-4.56-5.05-6.42-6.92C579.4,321.6,543.74,286.2,508.4,250.5c-21.53-21.75-12.57-56.39,16.36-63.67,13.61-3.43,25.8.06,35.85,10q24.39,24.21,48.63,48.57,63,63,125.91,125.92C755,391.19,755,412,735.09,431.85Q648.66,518.28,562.2,604.67c-16.92,16.88-41.18,16.78-56,.14-13.65-15.31-12.69-37.23,2.68-52.71q43.49-43.79,87.24-87.27c8.07-8.05,16.32-15.9,24.49-23.85Z"/></svg>