<svg id="Слой_1" data-name="Слой 1" xmlns="http://www.w3.org/2000/svg" viewBox="0 0 800 800"><title>axitМонтажная область 1</title><path d="M799.82,401.43c0,90,.15,180-.05,270-.14,62.92-40,112.63-100.56,125.85A117.87,117.87,0,0,1,674.88,800c-44.82.26-89.65.36-134.47,0-26.83-.19-44-23.85-34.28-47,6.15-14.64,17.8-21.37,33.74-21.32,42,.14,84,.06,125.93,0,43.15,0,65.68-22.6,65.69-65.87q0-264.66,0-529.33c0-43.16-22.59-65.66-65.86-65.68-42.33,0-84.66.24-127-.13-25.39-.23-41.72-23.68-32.66-46.29C511.39,11,522,3.05,536.3,2.92,585,2.5,633.9.58,682.45,3.59,751.59,7.86,799.6,61.93,799.77,131.43,800,221.43,799.82,311.43,799.82,401.43Z"/><path d="M455.32,435.53H440.86q-200.07,0-400.14,0c-19.87,0-33.43-9.86-37.26-26.75A33.9,33.9,0,0,1,34.11,367.3c3.54-.26,7.11-.1,10.67-.1H454.14c-3-3.49-4.75-5.87-6.82-7.94-22.6-22.67-45.3-45.25-67.87-67.95-15.88-16-16.72-36.86-2.25-51.05,14.13-13.85,34.72-12.93,50.28,2.59q66.12,65.94,132,132c16.58,16.64,16.75,36,.26,52.59Q493.54,494,427,560.28c-15.44,15.37-36.37,15.83-50.27,1.59s-13-34.7,2.55-50.29C403.83,486.89,428.51,462.33,455.32,435.53Z"/></svg>