<svg id="Слой_1" data-name="Слой 1" xmlns="http://www.w3.org/2000/svg" viewBox="0 0 512 512"><defs><style>.cls-1{fill:#da7172;}</style></defs><title>likeМонтажная область 1</title><path class="cls-1" d="M132.6,38.49c39,.94,72.35,14.34,99.77,42.14,7.12,7.22,14.43,14.25,21.45,21.57,2.71,2.83,4.5,2.55,7.16-.09,11.61-11.58,22.81-23.69,35.27-34.28C323.17,45,355,34.74,390,37.58c59.91,4.88,108.83,44,118.9,108.8,6.78,43.71-6,82.75-36,115.62-9.43,10.34-19.66,20-29.57,29.86Q355.15,380.06,267,468.23c-8.86,8.86-12.2,8.87-21,0Q144.06,366.4,42.15,264.58C20.68,243.18,7,217.84,2.71,187.89c-9.54-67.44,32.24-131.38,102-146C113.86,40,123.31,39.58,132.6,38.49Z"/></svg>