<svg id="Слой_1" data-name="Слой 1" xmlns="http://www.w3.org/2000/svg" viewBox="0 0 512 512"><title>unlikeМонтажная область 1</title><path d="M257.33,104.82c9.6-9.65,18.82-18.9,28-28.17a133.92,133.92,0,0,1,56.5-34.38c70.33-21.59,157.88,18,168.64,109.29,5,42.63-7.59,81.16-37.87,111.92C404,333.23,334.41,402.1,265.2,471.31c-5.63,5.63-11.66,5.58-17.34-.1C178.12,401.49,108,332.14,38.78,261.89S-1.68,73.2,92,44.67c51.84-15.78,98.64-4.21,138.45,33.1C239.6,86.31,248.12,95.5,257.33,104.82Zm-.71,350.58c2.07-1.89,3.32-2.94,4.47-4.09q98.7-99.1,197.35-198.29c32-32.24,41.07-71.59,30.65-114.64C469.72,58.39,369,27,306.25,80.79c-12.42,10.65-23.6,22.76-35.25,34.3-13.73,13.6-15.16,13.66-28.64.17-7.29-7.3-14.56-14.63-21.9-21.88-30.39-30-66.76-42.12-109-35.48-54.85,8.62-88.66,56.83-91.64,102.8-2.37,36.57,10.22,67.22,36.22,93.06q98.66,98,196.71,196.59A48.25,48.25,0,0,1,256.62,455.4Z"/></svg>