<svg id="Слой_1" data-name="Слой 1" xmlns="http://www.w3.org/2000/svg" viewBox="0 0 800 800"><title>mailМонтажная область 1</title><path d="M1.75,608.36V194.45c4-10,6.6-20.93,12.4-29.75,17.86-27.16,44.57-38.3,76.4-38.31q309.6,0,619.19,0a140,140,0,0,1,17.83,1.25c39.54,5.07,70.68,38.45,70.73,76.52q.23,197.19,0,394.38a69.16,69.16,0,0,1-12.46,40.21c-18.22,26.21-44.12,37.52-75.33,37.59-65.86.15-131.72,0-197.58,0q-210.81,0-421.62,0c-26.31,0-49.39-7.74-68.25-26.65C11.56,638.25,5.67,623.82,1.75,608.36Zm404-156.08L710.43,184H101.09ZM108.82,619.09h593.9L502.45,442.75c-3.13,2.7-5.87,5-8.56,7.38q-33,29-65.95,58.08c-15.66,13.77-29,13.64-44.75-.29q-35-30.9-70-61.7c-1.29-1.13-2.79-2-4.41-3.18ZM59.26,222.67V587.23L266.3,405ZM740.87,577.19V232.7L545.24,405Z"/></svg>