<svg id="Слой_1" data-name="Слой 1" xmlns="http://www.w3.org/2000/svg" viewBox="0 0 800 800"><title>exitМонтажная область 1</title><path d="M298.47,599.93c7-7.64,13.78-15,20.45-22.38q205.33-228,410.55-456.19c9.49-10.56,20.41-17.07,34.77-15.87,15.3,1.27,26.71,9,32.5,23.37,6.11,15.09,3.62,29.33-7.31,41.58-21.43,24.06-43,47.95-64.6,71.89L333.66,677c-1.08,1.2-2.14,2.41-3.23,3.6-21.94,23.9-45.87,23.71-66.55-1q-82.14-98.22-164-196.7C71.27,448.5,43.35,413.55,13.8,380c-19.13-21.69-13.81-48,1.38-60,18.38-14.46,41.23-10.27,59,11Q183.53,462.41,293,593.72C294.51,595.55,296.14,597.3,298.47,599.93Z"/></svg>