<svg id="Слой_1" data-name="Слой 1" xmlns="http://www.w3.org/2000/svg" viewBox="0 0 800 800"><title>phoneМонтажная область 1</title><path d="M560.45,800.65C505.87,799.19,456.11,783.7,411,753.09c-143.81-97.52-262.18-220.37-360-363.29C-21,284.74-10.3,144.72,75.16,47.74,92.1,28.52,110.31,11.75,136.33,6c31.6-7,61-1.35,84.63,20.47,34.77,32.16,68.64,65.45,101,100.08s32.2,88,2,124.63c-12.62,15.29-26.45,29.58-39.74,44.32-15.1,16.75-16.33,32.6-4.94,51.75,43.64,73.36,102.49,131.28,176,174.47,18.31,10.75,34.42,9.7,50.54-4.36,13.61-11.88,26.85-24.19,40.43-36.11,41.23-36.17,97.08-35.25,136.45,2.8Q727.4,527.3,771,571.7C808.67,609.91,810,669,773,708c-45.67,48.14-102,77.24-167.5,88C590.59,798.45,575.46,799.15,560.45,800.65ZM565,742.39c55.14.11,118.21-26,163.57-69.92,19.45-18.83,19.93-42.75.88-61.83q-42.69-42.76-85.74-85.16c-18.19-18-41.12-18.3-60.31-1.21-14.15,12.61-28,25.56-42.44,37.84-33.28,28.29-76.51,31.17-113.93,9.12-81.77-48.2-147.32-112.51-196.28-194-24.23-40.33-21.15-83.76,10.1-118.73,12.63-14.13,25.76-27.83,38.1-42.2,13.91-16.2,14.18-38.21-.57-53.34q-45.9-47.06-93.33-92.62c-15.28-14.69-39-13.91-53.91,1C87,115.5,62.56,168.75,60.47,231.38c-1.69,50.67,15,95.38,44.23,136.68,92.72,131,202.22,245,335.12,335.9C476.13,728.79,515.74,741.89,565,742.39Z"/></svg>