<svg id="Слой_1" data-name="Слой 1" xmlns="http://www.w3.org/2000/svg" viewBox="0 0 800 800"><title>profilEditМонтажная область 1</title><path d="M205,195.74C205.11,88.26,292.28,1.24,399.71,1.4S594.05,89.12,593.62,196.5c-.44,107.14-87.29,193.92-194.21,194C292.29,390.66,204.93,303.12,205,195.74Z"/><path d="M461.69,462.14c-7,6.54-14.24,12.86-21,19.61-30.83,30.68-61.48,61.55-92.33,92.22-27.72,27.58-41.54,60.78-41.17,99.9.11,11.83.38,23.68-.05,35.5-1.15,31.5,2.46,61.87,21.24,90-4.28.23-7,.49-9.68.49-54.37,0-108.75.13-163.12,0-67-.16-117.37-52.94-114.47-119.79,4.76-109.43,78.19-198.28,184.84-222.4,17-3.84,34.8-5.2,52.27-5.43,52.76-.69,105.54-.22,158.31-.28C445.71,452,454.35,453.05,461.69,462.14Z"/><path d="M502.34,508.86l158,158c-1.23,1.35-3.06,3.49-5,5.48-34.35,34.37-68.89,68.54-103,103.16-16.45,16.7-35.76,25-59.2,24.43-17.57-.41-35.17.1-52.75-.13-40.39-.53-71.32-31.67-71.67-72.15q-.25-29.25,0-58.5c.17-16.9,5-32.73,16.9-44.7C424.26,585.44,463.63,547.08,502.34,508.86Z"/><path d="M706.08,620.93,547.22,462.07c22.09-19.2,38.07-47.82,72.37-52.4,23.31-3.11,44,2.32,61,18.53,20.56,19.63,40.81,39.64,60.3,60.32,26.6,28.22,26.41,69.77,0,98C729.57,598.62,717.34,609.85,706.08,620.93Z"/></svg>