<svg id="Слой_1" data-name="Слой 1" xmlns="http://www.w3.org/2000/svg" viewBox="0 0 800 800"><title>profileМонтажная область 1</title><path d="M400.07,799.86q-119.88,0-239.77,0c-72.63,0-121.83-55-117-127.52,6.87-102.76,81.43-192.46,184.6-214.55a259.56,259.56,0,0,1,52.26-5.36q120.84-.82,241.7-.17c116.2.55,210.67,78.22,233,191.58,6.73,34.13,7.93,68.21-11,99.56-22,36.52-54.72,56-97.36,56.29C564.4,800.27,482.24,799.86,400.07,799.86Z"/><path d="M595.21,196.69c-.34,107.42-88,194.77-194.87,194.08-107.43-.68-194-88.16-193.48-195.46A194.28,194.28,0,0,1,402.2,1.89C508.94,2.36,595.54,89.77,595.21,196.69Z"/></svg>